<svg xmlns="http://www.w3.org/2000/svg" xmlns:svg="http://www.w3.org/2000/svg" id="svg8" width="32" height="32" version="1.1" viewBox="0 0 8.467 8.467"><metadata id="metadata5"/><g id="layer1" transform="translate(0,-288.53334)" style="display:inline"><path style="fill:none;fill-rule:evenodd;stroke:#404040;stroke-width:.52916664;stroke-linecap:butt;stroke-linejoin:round;stroke-miterlimit:4;stroke-dasharray:1.05833324,.52916662;stroke-dashoffset:0;stroke-opacity:1" id="path815" d="m 1.1929873,293.55097 2.5513394,-3.73251 3.7561382,6.31929"/><rect id="rect819" width="1.058" height="1.058" x=".685" y="293.022" style="opacity:1;fill:#ebebeb;fill-opacity:1;stroke:#000;stroke-width:.26458332;stroke-linecap:round;stroke-linejoin:miter;stroke-miterlimit:4;stroke-dasharray:none;stroke-opacity:1"/><rect style="opacity:1;fill:#ebebeb;fill-opacity:1;stroke:#000;stroke-width:.26458332;stroke-linecap:round;stroke-linejoin:miter;stroke-miterlimit:4;stroke-dasharray:none;stroke-opacity:1" id="rect823" width="1.058" height="1.058" x="3.201" y="289.242"/><rect id="rect825" width="1.058" height="1.058" x="6.993" y="295.656" style="opacity:1;fill:#ebebeb;fill-opacity:1;stroke:#000;stroke-width:.26458332;stroke-linecap:round;stroke-linejoin:miter;stroke-miterlimit:4;stroke-dasharray:none;stroke-opacity:1"/></g><g id="layer2" style="display:none"><path style="fill:#fff;fill-opacity:1;fill-rule:evenodd;stroke:#404040;stroke-width:.26458332;stroke-linecap:butt;stroke-linejoin:miter;stroke-miterlimit:4;stroke-dasharray:.52916663,.26458332;stroke-dashoffset:0;stroke-opacity:1" id="path849" d="M 3.3418776,0.81324808 C 4.9358536,0.71407739 9.5207028,1.3593162 7.1187112,3.8587616 4.2683292,6.8247896 6.2800894,7.12434 4.9584765,7.6878296 3.8453477,8.162429 2.3461876,7.5779983 1.4677668,6.7268665 0.72630833,6.008442 0.26164711,4.762795 0.49494612,3.7404892 0.8022216,2.3940218 2.0056085,0.89638516 3.3418776,0.81324808 Z"/><path style="fill:none;fill-rule:evenodd;stroke:gray;stroke-width:.26458332;stroke-linecap:butt;stroke-linejoin:miter;stroke-miterlimit:4;stroke-dasharray:.26458331,.26458331;stroke-dashoffset:0;stroke-opacity:1" id="path867" d="M 2.3387276,1.3441777 C 4.4569689,0.62366088 6.3625986,3.6474699 5.6223952,5.4546685"/><path style="fill:none;fill-rule:evenodd;stroke:#000;stroke-width:.26458332px;stroke-linecap:butt;stroke-linejoin:miter;stroke-opacity:1" id="path869" d="M 6.4728418,2.0883183 V 3.115941"/><path style="fill:none;fill-rule:evenodd;stroke:#000;stroke-width:.26458332px;stroke-linecap:butt;stroke-linejoin:miter;stroke-opacity:1" id="path871" d="M 5.9531245,2.584412 H 6.9925591"/></g><g id="layer3" style="display:none"><path style="display:inline;fill:#15a9ff;fill-opacity:1;fill-rule:evenodd;stroke:#404040;stroke-width:.26458332;stroke-linecap:butt;stroke-linejoin:miter;stroke-miterlimit:4;stroke-dasharray:.52916663,.26458332;stroke-dashoffset:0;stroke-opacity:1" id="path849-3" d="M 0.75848435,5.4088273 C 0.57384137,3.8224788 2.2388526,-1.4263422 3.5967409,1.4738652 5.3410383,5.1993756 6.9026494,2.135876 7.5363117,3.4253153 8.0700143,4.5113457 7.5669499,6.0397324 6.7642282,6.9626011 6.0866661,7.7415772 4.8677748,8.2724737 3.8344139,8.0944214 2.4733858,7.8599108 0.91327494,6.7387018 0.75848435,5.4088273 Z"/></g></svg>